<svg width="302" height="75" viewBox="0 0 302 75" fill="none" xmlns="http://www.w3.org/2000/svg">
<rect width="302" height="75" rx="8" fill="#1E1E1E"/>
<path d="M32.2 50.036C32.152 50.036 32.08 50.024 31.984 50C31.888 49.976 31.792 49.928 31.696 49.856L18.016 40.604C17.68 40.364 17.416 40.136 17.224 39.92C17.056 39.704 16.972 39.416 16.972 39.056V37.76C16.972 37.376 17.056 37.076 17.224 36.86C17.416 36.644 17.68 36.428 18.016 36.212L31.696 26.924C31.792 26.876 31.888 26.84 31.984 26.816C32.08 26.792 32.152 26.78 32.2 26.78C32.416 26.78 32.596 26.852 32.74 26.996C32.884 27.116 32.956 27.284 32.956 27.5V32.36C32.956 32.792 32.836 33.116 32.596 33.332C32.356 33.548 32.116 33.728 31.876 33.872L24.82 38.408L31.876 42.98C32.116 43.1 32.356 43.268 32.596 43.484C32.836 43.676 32.956 43.988 32.956 44.42V49.28C32.956 49.52 32.884 49.712 32.74 49.856C32.596 49.976 32.416 50.036 32.2 50.036ZM44.3444 50C43.9604 50 43.6844 49.904 43.5164 49.712C43.3724 49.52 43.2404 49.316 43.1204 49.1L36.2444 32.396C36.2204 32.3 36.2084 32.204 36.2084 32.108C36.2084 31.892 36.2924 31.7 36.4604 31.532C36.6284 31.364 36.8204 31.28 37.0364 31.28H42.1484C42.4844 31.28 42.7364 31.376 42.9044 31.568C43.0724 31.736 43.1924 31.904 43.2644 32.072L46.7204 41.828L50.2124 32.072C50.2844 31.904 50.4044 31.736 50.5724 31.568C50.7404 31.376 50.9924 31.28 51.3284 31.28H56.4044C56.6444 31.28 56.8364 31.364 56.9804 31.532C57.1484 31.7 57.2324 31.892 57.2324 32.108C57.2324 32.204 57.2204 32.3 57.1964 32.396L50.3564 49.1C50.2604 49.316 50.1164 49.52 49.9244 49.712C49.7564 49.904 49.4924 50 49.1324 50H44.3444ZM61.2753 50C61.0113 50 60.7833 49.916 60.5913 49.748C60.4233 49.556 60.3393 49.328 60.3393 49.064V32.216C60.3393 31.952 60.4233 31.736 60.5913 31.568C60.7833 31.376 61.0113 31.28 61.2753 31.28H66.6033C66.8673 31.28 67.0953 31.376 67.2873 31.568C67.4793 31.736 67.5753 31.952 67.5753 32.216V49.064C67.5753 49.328 67.4793 49.556 67.2873 49.748C67.0953 49.916 66.8673 50 66.6033 50H61.2753ZM61.3473 28.94C61.0833 28.94 60.8553 28.856 60.6633 28.688C60.4953 28.496 60.4113 28.268 60.4113 28.004V24.224C60.4113 23.96 60.4953 23.732 60.6633 23.54C60.8553 23.348 61.0833 23.252 61.3473 23.252H66.5313C66.7953 23.252 67.0233 23.348 67.2153 23.54C67.4073 23.732 67.5033 23.96 67.5033 24.224V28.004C67.5033 28.268 67.4073 28.496 67.2153 28.688C67.0233 28.856 66.7953 28.94 66.5313 28.94H61.3473ZM82.5769 50C80.9449 50 79.5049 49.76 78.2569 49.28C77.0329 48.8 76.0729 48.02 75.3769 46.94C74.7049 45.836 74.3689 44.384 74.3689 42.584V36.788H71.5249C71.2609 36.788 71.0329 36.704 70.8409 36.536C70.6729 36.344 70.5889 36.116 70.5889 35.852V32.216C70.5889 31.952 70.6729 31.736 70.8409 31.568C71.0329 31.376 71.2609 31.28 71.5249 31.28H74.3689V25.376C74.3689 25.112 74.4529 24.896 74.6209 24.728C74.8129 24.536 75.0409 24.44 75.3049 24.44H80.5249C80.7889 24.44 81.0049 24.536 81.1729 24.728C81.3649 24.896 81.4609 25.112 81.4609 25.376V31.28H85.9969C86.2609 31.28 86.4769 31.376 86.6449 31.568C86.8369 31.736 86.9329 31.952 86.9329 32.216V35.852C86.9329 36.116 86.8369 36.344 86.6449 36.536C86.4769 36.704 86.2609 36.788 85.9969 36.788H81.4609V41.972C81.4609 42.668 81.6049 43.22 81.8929 43.628C82.1809 44.012 82.6369 44.204 83.2609 44.204H86.2849C86.5489 44.204 86.7649 44.3 86.9329 44.492C87.1249 44.66 87.2209 44.876 87.2209 45.14V49.064C87.2209 49.328 87.1249 49.556 86.9329 49.748C86.7649 49.916 86.5489 50 86.2849 50H82.5769ZM100.109 50.36C97.9969 50.36 96.2089 50.048 94.7449 49.424C93.3049 48.8 92.2009 47.888 91.4329 46.688C90.6649 45.464 90.2329 44 90.1369 42.296C90.1129 41.792 90.1009 41.24 90.1009 40.64C90.1009 40.04 90.1129 39.488 90.1369 38.984C90.2329 37.256 90.6889 35.792 91.5049 34.592C92.3209 33.392 93.4489 32.48 94.8889 31.856C96.3529 31.232 98.0929 30.92 100.109 30.92C102.125 30.92 103.853 31.232 105.293 31.856C106.757 32.48 107.897 33.392 108.713 34.592C109.529 35.792 109.985 37.256 110.081 38.984C110.129 39.488 110.153 40.04 110.153 40.64C110.153 41.24 110.129 41.792 110.081 42.296C109.985 44 109.553 45.464 108.785 46.688C108.017 47.888 106.901 48.8 105.437 49.424C103.997 50.048 102.221 50.36 100.109 50.36ZM100.109 45.284C100.997 45.284 101.609 45.02 101.945 44.492C102.281 43.964 102.473 43.172 102.521 42.116C102.545 41.756 102.557 41.264 102.557 40.64C102.557 40.016 102.545 39.524 102.521 39.164C102.473 38.132 102.281 37.352 101.945 36.824C101.609 36.272 100.997 35.996 100.109 35.996C99.2449 35.996 98.6449 36.272 98.3089 36.824C97.9729 37.352 97.7689 38.132 97.6969 39.164C97.6729 39.524 97.6609 40.016 97.6609 40.64C97.6609 41.264 97.6729 41.756 97.6969 42.116C97.7689 43.172 97.9729 43.964 98.3089 44.492C98.6449 45.02 99.2449 45.284 100.109 45.284ZM114.904 50C114.64 50 114.412 49.916 114.22 49.748C114.052 49.556 113.968 49.328 113.968 49.064V32.216C113.968 31.952 114.052 31.736 114.22 31.568C114.412 31.376 114.64 31.28 114.904 31.28H120.124C120.388 31.28 120.604 31.376 120.772 31.568C120.964 31.736 121.06 31.952 121.06 32.216V33.548C121.78 32.852 122.596 32.3 123.508 31.892C124.444 31.484 125.464 31.28 126.568 31.28H128.188C128.452 31.28 128.68 31.376 128.872 31.568C129.064 31.736 129.16 31.952 129.16 32.216V36.86C129.16 37.124 129.064 37.352 128.872 37.544C128.68 37.736 128.452 37.832 128.188 37.832H124.156C123.292 37.832 122.632 38.06 122.176 38.516C121.72 38.948 121.492 39.596 121.492 40.46V49.064C121.492 49.328 121.396 49.556 121.204 49.748C121.036 49.916 120.82 50 120.556 50H114.904ZM133.132 56.84C132.868 56.84 132.64 56.744 132.448 56.552C132.28 56.384 132.196 56.168 132.196 55.904V32.216C132.196 31.952 132.28 31.736 132.448 31.568C132.64 31.376 132.868 31.28 133.132 31.28H138.208C138.472 31.28 138.688 31.376 138.856 31.568C139.048 31.736 139.144 31.952 139.144 32.216V33.404C139.72 32.684 140.452 32.096 141.34 31.64C142.228 31.16 143.32 30.92 144.616 30.92C145.744 30.92 146.752 31.088 147.64 31.424C148.552 31.76 149.344 32.276 150.016 32.972C150.688 33.644 151.216 34.508 151.6 35.564C151.984 36.62 152.212 37.856 152.284 39.272C152.308 39.776 152.32 40.232 152.32 40.64C152.32 41.048 152.308 41.516 152.284 42.044C152.236 43.388 152.02 44.576 151.636 45.608C151.252 46.64 150.724 47.516 150.052 48.236C149.38 48.932 148.588 49.46 147.676 49.82C146.764 50.18 145.744 50.36 144.616 50.36C143.512 50.36 142.54 50.18 141.7 49.82C140.86 49.436 140.164 48.848 139.612 48.056V55.904C139.612 56.168 139.516 56.384 139.324 56.552C139.132 56.744 138.916 56.84 138.676 56.84H133.132ZM142.168 44.744C142.792 44.744 143.272 44.624 143.608 44.384C143.968 44.12 144.22 43.772 144.364 43.34C144.532 42.884 144.64 42.368 144.688 41.792C144.76 41.024 144.76 40.256 144.688 39.488C144.64 38.912 144.532 38.408 144.364 37.976C144.22 37.52 143.968 37.172 143.608 36.932C143.272 36.668 142.792 36.536 142.168 36.536C141.544 36.536 141.04 36.668 140.656 36.932C140.296 37.196 140.032 37.544 139.864 37.976C139.72 38.408 139.636 38.888 139.612 39.416C139.588 39.92 139.576 40.376 139.576 40.784C139.576 41.168 139.588 41.612 139.612 42.116C139.636 42.62 139.732 43.064 139.9 43.448C140.092 43.832 140.368 44.144 140.728 44.384C141.088 44.624 141.568 44.744 142.168 44.744ZM165.369 50.36C162.369 50.36 159.981 49.592 158.205 48.056C156.453 46.496 155.553 44.12 155.505 40.928C155.505 40.832 155.505 40.712 155.505 40.568C155.505 40.4 155.505 40.28 155.505 40.208C155.577 38.216 156.009 36.536 156.801 35.168C157.617 33.776 158.745 32.72 160.185 32C161.649 31.28 163.365 30.92 165.333 30.92C167.541 30.92 169.365 31.364 170.805 32.252C172.269 33.116 173.361 34.28 174.081 35.744C174.801 37.184 175.161 38.804 175.161 40.604V41.612C175.161 41.852 175.065 42.068 174.873 42.26C174.681 42.452 174.453 42.548 174.189 42.548H163.101C163.101 42.548 163.101 42.572 163.101 42.62C163.101 42.668 163.101 42.716 163.101 42.764C163.101 43.34 163.173 43.856 163.317 44.312C163.485 44.744 163.737 45.092 164.073 45.356C164.409 45.596 164.817 45.716 165.297 45.716C165.609 45.716 165.873 45.668 166.089 45.572C166.305 45.476 166.485 45.356 166.629 45.212C166.797 45.044 166.941 44.888 167.061 44.744C167.277 44.528 167.457 44.396 167.601 44.348C167.745 44.276 167.961 44.24 168.249 44.24H173.901C174.117 44.24 174.297 44.312 174.441 44.456C174.609 44.6 174.681 44.78 174.657 44.996C174.633 45.428 174.429 45.956 174.045 46.58C173.661 47.18 173.085 47.768 172.317 48.344C171.573 48.92 170.613 49.4 169.437 49.784C168.261 50.168 166.905 50.36 165.369 50.36ZM163.101 38.516H167.565V38.444C167.565 37.796 167.481 37.244 167.313 36.788C167.145 36.332 166.893 35.996 166.557 35.78C166.221 35.54 165.813 35.42 165.333 35.42C164.853 35.42 164.445 35.54 164.109 35.78C163.773 35.996 163.521 36.332 163.353 36.788C163.185 37.244 163.101 37.796 163.101 38.444V38.516ZM185.939 50.36C184.835 50.36 183.827 50.192 182.915 49.856C182.003 49.52 181.211 49.004 180.539 48.308C179.867 47.612 179.339 46.736 178.955 45.68C178.571 44.624 178.343 43.388 178.271 41.972C178.247 41.444 178.235 40.988 178.235 40.604C178.235 40.22 178.247 39.776 178.271 39.272C178.319 37.928 178.535 36.74 178.919 35.708C179.303 34.652 179.831 33.776 180.503 33.08C181.175 32.384 181.967 31.856 182.879 31.496C183.815 31.112 184.835 30.92 185.939 30.92C187.019 30.92 187.979 31.1 188.819 31.46C189.659 31.796 190.367 32.252 190.943 32.828V25.376C190.943 25.112 191.027 24.896 191.195 24.728C191.387 24.536 191.615 24.44 191.879 24.44H197.423C197.687 24.44 197.903 24.536 198.071 24.728C198.263 24.896 198.359 25.112 198.359 25.376V49.064C198.359 49.328 198.263 49.556 198.071 49.748C197.903 49.916 197.687 50 197.423 50H192.311C192.071 50 191.855 49.916 191.663 49.748C191.471 49.556 191.375 49.328 191.375 49.064V48.056C190.799 48.752 190.067 49.316 189.179 49.748C188.315 50.156 187.235 50.36 185.939 50.36ZM188.387 44.744C189.011 44.744 189.503 44.612 189.863 44.348C190.247 44.084 190.511 43.736 190.655 43.304C190.823 42.872 190.919 42.392 190.943 41.864C190.991 41.336 191.015 40.88 191.015 40.496C191.015 40.112 190.991 39.668 190.943 39.164C190.919 38.66 190.811 38.216 190.619 37.832C190.451 37.448 190.187 37.136 189.827 36.896C189.467 36.656 188.987 36.536 188.387 36.536C187.787 36.536 187.307 36.668 186.947 36.932C186.587 37.172 186.323 37.52 186.155 37.976C186.011 38.408 185.915 38.912 185.867 39.488C185.795 40.256 185.795 41.024 185.867 41.792C185.915 42.368 186.011 42.884 186.155 43.34C186.323 43.772 186.587 44.12 186.947 44.384C187.307 44.624 187.787 44.744 188.387 44.744ZM212.02 50.36C209.02 50.36 206.632 49.592 204.856 48.056C203.104 46.496 202.204 44.12 202.156 40.928C202.156 40.832 202.156 40.712 202.156 40.568C202.156 40.4 202.156 40.28 202.156 40.208C202.228 38.216 202.66 36.536 203.452 35.168C204.268 33.776 205.396 32.72 206.836 32C208.3 31.28 210.016 30.92 211.984 30.92C214.192 30.92 216.016 31.364 217.456 32.252C218.92 33.116 220.012 34.28 220.732 35.744C221.452 37.184 221.812 38.804 221.812 40.604V41.612C221.812 41.852 221.716 42.068 221.524 42.26C221.332 42.452 221.104 42.548 220.84 42.548H209.752C209.752 42.548 209.752 42.572 209.752 42.62C209.752 42.668 209.752 42.716 209.752 42.764C209.752 43.34 209.824 43.856 209.968 44.312C210.136 44.744 210.388 45.092 210.724 45.356C211.06 45.596 211.468 45.716 211.948 45.716C212.26 45.716 212.524 45.668 212.74 45.572C212.956 45.476 213.136 45.356 213.28 45.212C213.448 45.044 213.592 44.888 213.712 44.744C213.928 44.528 214.108 44.396 214.252 44.348C214.396 44.276 214.612 44.24 214.9 44.24H220.552C220.768 44.24 220.948 44.312 221.092 44.456C221.26 44.6 221.332 44.78 221.308 44.996C221.284 45.428 221.08 45.956 220.696 46.58C220.312 47.18 219.736 47.768 218.968 48.344C218.224 48.92 217.264 49.4 216.088 49.784C214.912 50.168 213.556 50.36 212.02 50.36ZM209.752 38.516H214.216V38.444C214.216 37.796 214.132 37.244 213.964 36.788C213.796 36.332 213.544 35.996 213.208 35.78C212.872 35.54 212.464 35.42 211.984 35.42C211.504 35.42 211.096 35.54 210.76 35.78C210.424 35.996 210.172 36.332 210.004 36.788C209.836 37.244 209.752 37.796 209.752 38.444V38.516ZM234.894 50.36C232.782 50.36 230.994 50.048 229.53 49.424C228.09 48.8 226.986 47.888 226.218 46.688C225.45 45.464 225.018 44 224.922 42.296C224.898 41.792 224.886 41.24 224.886 40.64C224.886 40.04 224.898 39.488 224.922 38.984C225.018 37.256 225.474 35.792 226.29 34.592C227.106 33.392 228.234 32.48 229.674 31.856C231.138 31.232 232.878 30.92 234.894 30.92C236.91 30.92 238.638 31.232 240.078 31.856C241.542 32.48 242.682 33.392 243.498 34.592C244.314 35.792 244.77 37.256 244.866 38.984C244.914 39.488 244.938 40.04 244.938 40.64C244.938 41.24 244.914 41.792 244.866 42.296C244.77 44 244.338 45.464 243.57 46.688C242.802 47.888 241.686 48.8 240.222 49.424C238.782 50.048 237.006 50.36 234.894 50.36ZM234.894 45.284C235.782 45.284 236.394 45.02 236.73 44.492C237.066 43.964 237.258 43.172 237.306 42.116C237.33 41.756 237.342 41.264 237.342 40.64C237.342 40.016 237.33 39.524 237.306 39.164C237.258 38.132 237.066 37.352 236.73 36.824C236.394 36.272 235.782 35.996 234.894 35.996C234.03 35.996 233.43 36.272 233.094 36.824C232.758 37.352 232.554 38.132 232.482 39.164C232.458 39.524 232.446 40.016 232.446 40.64C232.446 41.264 232.458 41.756 232.482 42.116C232.554 43.172 232.758 43.964 233.094 44.492C233.43 45.02 234.03 45.284 234.894 45.284ZM247.586 53.024C247.37 53.024 247.178 52.94 247.01 52.772C246.866 52.628 246.794 52.448 246.794 52.232C246.794 52.136 246.818 52.028 246.866 51.908L258.998 22.676C259.094 22.46 259.25 22.244 259.466 22.028C259.706 21.812 260.03 21.704 260.438 21.704H264.47C264.686 21.704 264.866 21.788 265.01 21.956C265.178 22.1 265.262 22.28 265.262 22.496C265.262 22.592 265.226 22.7 265.154 22.82L252.95 52.052C252.878 52.268 252.734 52.484 252.518 52.7C252.302 52.916 251.966 53.024 251.51 53.024H247.586ZM269.533 50.072C269.317 50.072 269.137 50 268.993 49.856C268.849 49.712 268.777 49.532 268.777 49.316V44.456C268.777 44.024 268.897 43.712 269.137 43.52C269.401 43.304 269.641 43.124 269.857 42.98L276.949 38.408L269.857 33.872C269.641 33.752 269.401 33.584 269.137 33.368C268.897 33.128 268.777 32.804 268.777 32.396V27.536C268.777 27.32 268.849 27.14 268.993 26.996C269.137 26.852 269.317 26.78 269.533 26.78C269.605 26.78 269.677 26.804 269.749 26.852C269.845 26.876 269.941 26.912 270.037 26.96L283.753 36.248C284.089 36.464 284.341 36.68 284.509 36.896C284.701 37.112 284.797 37.4 284.797 37.76V39.092C284.797 39.452 284.701 39.74 284.509 39.956C284.341 40.172 284.089 40.388 283.753 40.604L270.037 49.892C269.941 49.94 269.845 49.976 269.749 50C269.677 50.048 269.605 50.072 269.533 50.072Z" fill="white"/>
</svg>
