<svg width="320" height="80" viewBox="0 0 320 80" fill="none" xmlns="http://www.w3.org/2000/svg">
<rect width="320" height="80" rx="20" fill="#1F242A"/>
<path d="M44.696 51.56C44.552 51.56 44.348 51.476 44.084 51.308L31.124 42.488C30.764 42.248 30.5 42.02 30.332 41.804C30.164 41.564 30.08 41.276 30.08 40.94V39.824C30.08 39.488 30.164 39.2 30.332 38.96C30.5 38.72 30.764 38.48 31.124 38.24L44.084 29.42C44.372 29.276 44.576 29.204 44.696 29.204C44.912 29.204 45.092 29.276 45.236 29.42C45.38 29.54 45.452 29.708 45.452 29.924V33.812C45.452 34.148 45.356 34.424 45.164 34.64C44.996 34.832 44.756 35.024 44.444 35.216L36.596 40.364L44.444 45.548C44.78 45.74 45.032 45.932 45.2 46.124C45.368 46.316 45.452 46.58 45.452 46.916V50.804C45.452 51.02 45.38 51.2 45.236 51.344C45.092 51.488 44.912 51.56 44.696 51.56ZM57.1017 53C56.7657 53 56.5017 52.928 56.3097 52.784C56.1417 52.616 55.9977 52.388 55.8777 52.1L49.0737 35.396L49.0017 35.072C49.0017 34.856 49.0737 34.676 49.2177 34.532C49.3857 34.364 49.5897 34.28 49.8297 34.28H53.8977C54.4257 34.28 54.7737 34.532 54.9417 35.036L59.0097 46.088L63.1137 35.036C63.2817 34.532 63.6297 34.28 64.1577 34.28H68.2257C68.4417 34.28 68.6337 34.364 68.8017 34.532C68.9697 34.676 69.0537 34.856 69.0537 35.072L68.9817 35.396L62.1777 52.1C62.0577 52.388 61.9017 52.616 61.7097 52.784C61.5177 52.928 61.2537 53 60.9177 53H57.1017ZM73.4358 31.58C73.1718 31.58 72.9558 31.496 72.7878 31.328C72.6198 31.16 72.5358 30.944 72.5358 30.68V27.44C72.5358 27.176 72.6198 26.96 72.7878 26.792C72.9558 26.624 73.1718 26.54 73.4358 26.54H77.7558C78.0198 26.54 78.2358 26.624 78.4038 26.792C78.5718 26.96 78.6558 27.176 78.6558 27.44V30.68C78.6558 30.944 78.5718 31.16 78.4038 31.328C78.2358 31.496 78.0198 31.58 77.7558 31.58H73.4358ZM73.4718 53C73.2078 53 72.9918 52.916 72.8238 52.748C72.6558 52.58 72.5718 52.364 72.5718 52.1V35.18C72.5718 34.916 72.6558 34.7 72.8238 34.532C72.9918 34.364 73.2078 34.28 73.4718 34.28H77.7198C77.9838 34.28 78.1998 34.364 78.3678 34.532C78.5358 34.7 78.6198 34.916 78.6198 35.18V52.1C78.6198 52.34 78.5358 52.556 78.3678 52.748C78.1998 52.916 77.9838 53 77.7198 53H73.4718ZM93.1686 53C88.2006 53 85.7166 50.636 85.7166 45.908V38.996H82.9086C82.6446 38.996 82.4166 38.912 82.2246 38.744C82.0566 38.576 81.9726 38.36 81.9726 38.096V35.18C81.9726 34.916 82.0566 34.7 82.2246 34.532C82.4166 34.364 82.6446 34.28 82.9086 34.28H85.7166V28.34C85.7166 28.076 85.8006 27.86 85.9686 27.692C86.1606 27.524 86.3766 27.44 86.6166 27.44H90.7926C91.0566 27.44 91.2726 27.524 91.4406 27.692C91.6086 27.86 91.6926 28.076 91.6926 28.34V34.28H96.1926C96.4566 34.28 96.6726 34.364 96.8406 34.532C97.0326 34.7 97.1286 34.916 97.1286 35.18V38.096C97.1286 38.36 97.0326 38.576 96.8406 38.744C96.6726 38.912 96.4566 38.996 96.1926 38.996H91.6926V45.404C91.6926 47.18 92.3766 48.068 93.7446 48.068H96.5166C96.7806 48.068 96.9966 48.152 97.1646 48.32C97.3326 48.488 97.4166 48.704 97.4166 48.968V52.1C97.4166 52.34 97.3326 52.556 97.1646 52.748C96.9966 52.916 96.7806 53 96.5166 53H93.1686ZM109.973 53.36C106.997 53.36 104.705 52.652 103.097 51.236C101.489 49.82 100.613 47.828 100.469 45.26C100.445 44.948 100.433 44.408 100.433 43.64C100.433 42.872 100.445 42.332 100.469 42.02C100.613 39.476 101.513 37.496 103.169 36.08C104.825 34.64 107.093 33.92 109.973 33.92C112.877 33.92 115.157 34.64 116.813 36.08C118.469 37.496 119.369 39.476 119.513 42.02C119.537 42.332 119.549 42.872 119.549 43.64C119.549 44.408 119.537 44.948 119.513 45.26C119.369 47.828 118.493 49.82 116.885 51.236C115.277 52.652 112.973 53.36 109.973 53.36ZM109.973 48.968C111.029 48.968 111.809 48.656 112.313 48.032C112.817 47.384 113.105 46.4 113.177 45.08C113.201 44.84 113.213 44.36 113.213 43.64C113.213 42.92 113.201 42.44 113.177 42.2C113.105 40.904 112.805 39.932 112.277 39.284C111.773 38.636 111.005 38.312 109.973 38.312C107.981 38.312 106.925 39.608 106.805 42.2L106.769 43.64L106.805 45.08C106.853 46.4 107.129 47.384 107.633 48.032C108.161 48.656 108.941 48.968 109.973 48.968ZM124.745 53C124.481 53 124.265 52.916 124.097 52.748C123.929 52.58 123.845 52.364 123.845 52.1V35.18C123.845 34.916 123.929 34.7 124.097 34.532C124.265 34.364 124.481 34.28 124.745 34.28H128.885C129.149 34.28 129.365 34.376 129.533 34.568C129.725 34.736 129.821 34.94 129.821 35.18V36.62C131.141 35.06 132.917 34.28 135.149 34.28H136.733C136.997 34.28 137.213 34.364 137.381 34.532C137.549 34.7 137.633 34.916 137.633 35.18V38.888C137.633 39.128 137.549 39.344 137.381 39.536C137.213 39.704 136.997 39.788 136.733 39.788H133.241C132.257 39.788 131.489 40.064 130.937 40.616C130.409 41.144 130.145 41.9 130.145 42.884V52.1C130.145 52.364 130.049 52.58 129.857 52.748C129.689 52.916 129.473 53 129.209 53H124.745ZM141.813 59.84C141.573 59.84 141.357 59.756 141.165 59.588C140.997 59.42 140.913 59.204 140.913 58.94V35.18C140.913 34.916 140.997 34.7 141.165 34.532C141.357 34.364 141.573 34.28 141.813 34.28H145.881C146.145 34.28 146.361 34.364 146.529 34.532C146.697 34.7 146.781 34.916 146.781 35.18V36.476C148.077 34.772 149.937 33.92 152.361 33.92C154.713 33.92 156.549 34.652 157.869 36.116C159.189 37.58 159.909 39.644 160.029 42.308C160.053 42.62 160.065 43.064 160.065 43.64C160.065 44.216 160.053 44.66 160.029 44.972C159.933 47.564 159.213 49.616 157.869 51.128C156.525 52.616 154.689 53.36 152.361 53.36C150.009 53.36 148.257 52.556 147.105 50.948V58.94C147.105 59.204 147.021 59.42 146.853 59.588C146.685 59.756 146.469 59.84 146.205 59.84H141.813ZM150.417 48.536C151.545 48.536 152.349 48.2 152.829 47.528C153.333 46.856 153.621 45.932 153.693 44.756C153.741 44.276 153.765 43.904 153.765 43.64C153.765 43.376 153.741 43.004 153.693 42.524C153.621 41.348 153.333 40.424 152.829 39.752C152.349 39.08 151.545 38.744 150.417 38.744C149.313 38.744 148.497 39.092 147.969 39.788C147.465 40.46 147.177 41.336 147.105 42.416L147.069 43.748L147.105 45.116C147.153 46.1 147.453 46.916 148.005 47.564C148.557 48.212 149.361 48.536 150.417 48.536ZM172.984 53.36C170.104 53.36 167.836 52.58 166.18 51.02C164.524 49.46 163.66 47.192 163.588 44.216V42.956C163.684 40.124 164.56 37.916 166.216 36.332C167.896 34.724 170.14 33.92 172.948 33.92C174.988 33.92 176.704 34.34 178.096 35.18C179.512 35.996 180.568 37.124 181.264 38.564C181.984 40.004 182.344 41.66 182.344 43.532V44.396C182.344 44.636 182.26 44.852 182.092 45.044C181.924 45.212 181.708 45.296 181.444 45.296H169.924V45.548C169.972 46.676 170.248 47.588 170.752 48.284C171.256 48.98 171.988 49.328 172.948 49.328C173.548 49.328 174.04 49.208 174.424 48.968C174.808 48.704 175.156 48.392 175.468 48.032C175.684 47.768 175.852 47.612 175.972 47.564C176.116 47.492 176.332 47.456 176.62 47.456H181.084C181.3 47.456 181.48 47.528 181.624 47.672C181.792 47.792 181.876 47.96 181.876 48.176C181.876 48.8 181.516 49.52 180.796 50.336C180.1 51.152 179.08 51.86 177.736 52.46C176.392 53.06 174.808 53.36 172.984 53.36ZM176.008 41.732V41.66C176.008 40.484 175.732 39.56 175.18 38.888C174.652 38.192 173.908 37.844 172.948 37.844C172.012 37.844 171.268 38.192 170.716 38.888C170.188 39.56 169.924 40.484 169.924 41.66V41.732H176.008ZM193.423 53.36C191.071 53.36 189.235 52.628 187.915 51.164C186.619 49.676 185.911 47.588 185.791 44.9L185.755 43.64L185.791 42.344C185.887 39.752 186.595 37.7 187.915 36.188C189.259 34.676 191.095 33.92 193.423 33.92C195.607 33.92 197.371 34.628 198.715 36.044V28.34C198.715 28.076 198.799 27.86 198.967 27.692C199.135 27.524 199.351 27.44 199.615 27.44H204.007C204.271 27.44 204.487 27.524 204.655 27.692C204.823 27.86 204.907 28.076 204.907 28.34V52.1C204.907 52.34 204.823 52.556 204.655 52.748C204.487 52.916 204.271 53 204.007 53H199.939C199.699 53 199.483 52.916 199.291 52.748C199.123 52.556 199.039 52.34 199.039 52.1V50.948C197.719 52.556 195.847 53.36 193.423 53.36ZM195.403 48.536C196.483 48.536 197.287 48.2 197.815 47.528C198.343 46.832 198.643 45.944 198.715 44.864C198.739 44.552 198.751 44.096 198.751 43.496C198.751 42.92 198.739 42.476 198.715 42.164C198.667 41.18 198.367 40.364 197.815 39.716C197.263 39.068 196.459 38.744 195.403 38.744C194.275 38.744 193.459 39.08 192.955 39.752C192.475 40.424 192.199 41.348 192.127 42.524C192.103 42.764 192.091 43.136 192.091 43.64C192.091 44.144 192.103 44.516 192.127 44.756C192.199 45.932 192.475 46.856 192.955 47.528C193.459 48.2 194.275 48.536 195.403 48.536ZM218.51 53.36C215.63 53.36 213.362 52.58 211.706 51.02C210.05 49.46 209.186 47.192 209.114 44.216V42.956C209.21 40.124 210.086 37.916 211.742 36.332C213.422 34.724 215.666 33.92 218.474 33.92C220.514 33.92 222.23 34.34 223.622 35.18C225.038 35.996 226.094 37.124 226.79 38.564C227.51 40.004 227.87 41.66 227.87 43.532V44.396C227.87 44.636 227.786 44.852 227.618 45.044C227.45 45.212 227.234 45.296 226.97 45.296H215.45V45.548C215.498 46.676 215.774 47.588 216.278 48.284C216.782 48.98 217.514 49.328 218.474 49.328C219.074 49.328 219.566 49.208 219.95 48.968C220.334 48.704 220.682 48.392 220.994 48.032C221.21 47.768 221.378 47.612 221.498 47.564C221.642 47.492 221.858 47.456 222.146 47.456H226.61C226.826 47.456 227.006 47.528 227.15 47.672C227.318 47.792 227.402 47.96 227.402 48.176C227.402 48.8 227.042 49.52 226.322 50.336C225.626 51.152 224.606 51.86 223.262 52.46C221.918 53.06 220.334 53.36 218.51 53.36ZM221.534 41.732V41.66C221.534 40.484 221.258 39.56 220.706 38.888C220.178 38.192 219.434 37.844 218.474 37.844C217.538 37.844 216.794 38.192 216.242 38.888C215.714 39.56 215.45 40.484 215.45 41.66V41.732H221.534ZM240.821 53.36C237.845 53.36 235.553 52.652 233.945 51.236C232.337 49.82 231.461 47.828 231.317 45.26C231.293 44.948 231.281 44.408 231.281 43.64C231.281 42.872 231.293 42.332 231.317 42.02C231.461 39.476 232.361 37.496 234.017 36.08C235.673 34.64 237.941 33.92 240.821 33.92C243.725 33.92 246.005 34.64 247.661 36.08C249.317 37.496 250.217 39.476 250.361 42.02C250.385 42.332 250.397 42.872 250.397 43.64C250.397 44.408 250.385 44.948 250.361 45.26C250.217 47.828 249.341 49.82 247.733 51.236C246.125 52.652 243.821 53.36 240.821 53.36ZM240.821 48.968C241.877 48.968 242.657 48.656 243.161 48.032C243.665 47.384 243.953 46.4 244.025 45.08C244.049 44.84 244.061 44.36 244.061 43.64C244.061 42.92 244.049 42.44 244.025 42.2C243.953 40.904 243.653 39.932 243.125 39.284C242.621 38.636 241.853 38.312 240.821 38.312C238.829 38.312 237.773 39.608 237.653 42.2L237.617 43.64L237.653 45.08C237.701 46.4 237.977 47.384 238.481 48.032C239.009 48.656 239.789 48.968 240.821 48.968ZM253.38 56.024C253.164 56.024 252.972 55.94 252.804 55.772C252.66 55.628 252.588 55.46 252.588 55.268C252.588 55.22 252.624 55.1 252.696 54.908L264.864 25.568C265.152 24.992 265.584 24.704 266.16 24.704H269.4C269.616 24.704 269.796 24.788 269.94 24.956C270.084 25.1 270.156 25.268 270.156 25.46C270.156 25.58 270.132 25.7 270.084 25.82L257.844 55.16C257.604 55.736 257.172 56.024 256.548 56.024H253.38ZM274.59 51.56C274.398 51.56 274.23 51.488 274.086 51.344C273.942 51.2 273.87 51.02 273.87 50.804V46.916C273.87 46.58 273.954 46.316 274.122 46.124C274.29 45.932 274.542 45.74 274.878 45.548L282.69 40.364L274.878 35.216C274.566 35.024 274.314 34.832 274.122 34.64C273.954 34.424 273.87 34.148 273.87 33.812V29.924C273.87 29.708 273.942 29.54 274.086 29.42C274.23 29.276 274.398 29.204 274.59 29.204C274.758 29.204 274.962 29.276 275.202 29.42L288.198 38.24C288.558 38.48 288.822 38.72 288.99 38.96C289.158 39.2 289.242 39.488 289.242 39.824V40.94C289.242 41.276 289.158 41.564 288.99 41.804C288.822 42.02 288.558 42.248 288.198 42.488L275.202 51.308C274.986 51.476 274.782 51.56 274.59 51.56Z" fill="white"/>
</svg>
