<svg width="308" height="232" viewBox="0 0 308 232" fill="none" xmlns="http://www.w3.org/2000/svg">
<path d="M131.085 200.796C168.954 200.796 199.653 198.291 199.653 195.201C199.653 192.112 168.954 189.607 131.085 189.607C93.2155 189.607 62.5164 192.112 62.5164 195.201C62.5164 198.291 93.2155 200.796 131.085 200.796Z" fill="#2E313A"/>
<path d="M245.484 142.68H196.727V182.381H245.484V142.68Z" fill="white"/>
<path d="M245.484 182.773H196.727C196.625 182.773 196.527 182.733 196.455 182.661C196.383 182.588 196.342 182.49 196.342 182.388V142.68C196.342 142.578 196.383 142.48 196.455 142.408C196.527 142.336 196.625 142.295 196.727 142.295H245.484C245.585 142.297 245.682 142.338 245.754 142.41C245.825 142.482 245.867 142.579 245.869 142.68V182.388C245.867 182.49 245.825 182.587 245.754 182.658C245.682 182.73 245.585 182.771 245.484 182.773ZM197.112 182.004H245.099V143.065H197.12L197.112 182.004Z" fill="#D1D3D4"/>
<path d="M245.484 148.167H196.727C196.625 148.167 196.527 148.126 196.455 148.054C196.383 147.982 196.342 147.884 196.342 147.782C196.342 147.68 196.383 147.582 196.455 147.51C196.527 147.438 196.625 147.397 196.727 147.397H245.484C245.586 147.397 245.684 147.438 245.756 147.51C245.828 147.582 245.869 147.68 245.869 147.782C245.867 147.884 245.825 147.98 245.754 148.052C245.682 148.124 245.585 148.165 245.484 148.167Z" fill="#D1D3D4"/>
<path d="M111.142 68.5038C110.09 68.5745 109.041 68.3355 108.124 67.8164C107.207 67.2974 106.462 66.521 105.982 65.5834C105.502 64.6457 105.307 63.588 105.422 62.541C105.538 61.494 105.957 60.5037 106.63 59.6926C103.688 58.3382 102.133 54.8599 102.348 51.6355C102.564 48.4111 104.266 45.4791 106.391 43.0012C108.139 40.9773 110.333 39.1535 112.959 38.6533C113.456 38.6038 113.941 38.4684 114.391 38.2531C114.746 38.0039 115.053 37.6938 115.3 37.3374C117.217 34.8902 119.581 32.6432 122.538 31.6582C125.495 30.6731 129.114 31.2349 131.092 33.6436C132.082 32.7853 133.308 32.2475 134.61 32.1012C135.912 31.9549 137.227 32.2071 138.382 32.8244C139.538 33.4417 140.478 34.395 141.079 35.5581C141.68 36.7213 141.914 38.0394 141.749 39.3382C143.833 39.6456 145.786 40.5366 147.383 41.9082C148.98 43.2797 150.156 45.0755 150.774 47.0875C151.875 51.1353 150.004 55.891 146.269 57.8072C145.838 58.0304 145.322 58.3228 145.337 58.7999C145.38 59.0879 145.509 59.3562 145.707 59.5695C146.908 61.2855 146.308 63.7712 144.937 65.3256C143.566 66.8801 141.518 67.7035 139.547 68.4885C139.986 68.9279 140.278 69.4917 140.384 70.1032C140.49 70.7146 140.405 71.3439 140.14 71.9052C139.569 73.0289 138.68 73.9601 137.584 74.5832C133.302 77.3459 128.005 76.484 123.208 76.584C118.78 76.6764 114.383 73.8522 111.45 70.6509C110.88 70.0429 110.426 68.9348 111.142 68.5038Z" fill="white"/>
<path d="M128.513 77.0227C127.743 77.0227 126.973 77.0227 126.265 77.0227C125.264 77.0227 124.216 76.9765 123.231 77.0227C119.211 77.0919 114.761 74.8372 111.173 70.9664C110.92 70.7133 110.722 70.4116 110.589 70.0796C110.457 69.7475 110.393 69.3921 110.403 69.0348C110.398 69.0068 110.398 68.9782 110.403 68.9502C109.366 68.9004 108.362 68.5708 107.498 67.9965C106.633 67.4223 105.941 66.6247 105.494 65.6886C105.047 64.7524 104.862 63.7128 104.959 62.6801C105.056 61.6473 105.431 60.6601 106.044 59.8234C103.388 58.3613 101.732 55.0599 101.963 51.6124C102.156 48.665 103.55 45.6869 106.098 42.7472C108.316 40.1924 110.533 38.7302 112.89 38.2762L113.151 38.23C113.522 38.2155 113.883 38.1077 114.2 37.9167C114.518 37.7257 114.782 37.4576 114.969 37.1373C117.386 34.0591 119.812 32.166 122.415 31.2965C125.625 30.2268 129.144 30.9732 131.139 33.1049C132.188 32.295 133.45 31.8065 134.772 31.6984C136.093 31.5903 137.418 31.8673 138.585 32.4958C139.753 33.1243 140.713 34.0775 141.349 35.2399C141.986 36.4023 142.272 37.7243 142.173 39.0457C144.253 39.4215 146.191 40.3607 147.774 41.7611C149.357 43.1615 150.525 44.9692 151.151 46.9874C152.321 51.2892 150.25 56.2219 146.446 58.1535C146.061 58.3459 145.715 58.5613 145.722 58.7922C145.761 58.9519 145.837 59.0998 145.946 59.2231L146.015 59.3232C147.386 61.2624 146.608 63.9789 145.183 65.5488C143.774 66.931 142.075 67.9824 140.209 68.627C140.546 69.1312 140.75 69.7126 140.801 70.3169C140.852 70.9212 140.749 71.5285 140.502 72.0822C139.913 73.2686 138.982 74.252 137.83 74.9064C134.973 76.7533 131.739 77.0227 128.513 77.0227ZM124.085 76.1916C124.817 76.1916 125.556 76.1916 126.28 76.1916C130.13 76.2685 134.095 76.3532 137.383 74.2292C138.419 73.6524 139.259 72.7786 139.793 71.7205C140.032 71.2303 140.113 70.6779 140.023 70.14C139.933 69.6022 139.678 69.1056 139.293 68.7193C139.243 68.6765 139.204 68.6214 139.181 68.5594C139.158 68.4974 139.152 68.4306 139.162 68.3653C139.173 68.2991 139.2 68.2367 139.242 68.1841C139.284 68.1316 139.339 68.0906 139.401 68.0652C141.203 67.3418 143.251 66.5261 144.614 64.987C145.838 63.6403 146.523 61.3317 145.384 59.7157L145.314 59.631C145.104 59.3891 144.975 59.0878 144.945 58.7691C144.945 57.9996 145.676 57.6302 146.084 57.4224C149.58 55.6217 151.474 51.1122 150.396 47.1413C149.787 45.2115 148.646 43.4921 147.105 42.1801C145.563 40.8681 143.683 40.0166 141.68 39.7229C141.58 39.7077 141.491 39.654 141.43 39.5735C141.37 39.4929 141.343 39.3918 141.357 39.292C141.508 38.0729 141.287 36.8366 140.723 35.7452C140.159 34.6537 139.278 33.7581 138.196 33.1757C137.113 32.5933 135.88 32.3513 134.658 32.4815C133.436 32.6117 132.282 33.1079 131.347 33.9052C131.308 33.9392 131.263 33.965 131.214 33.9808C131.165 33.9967 131.113 34.0024 131.062 33.9975C131.011 33.9938 130.961 33.9795 130.916 33.9556C130.871 33.9318 130.832 33.8989 130.8 33.859C129.067 31.7505 125.718 30.9809 122.669 32.0044C120.212 32.8201 117.902 34.6363 115.608 37.5528C115.336 37.9476 114.994 38.2893 114.599 38.5609C114.192 38.7772 113.748 38.9131 113.29 38.9611L113.044 39.0073C110.865 39.4305 108.786 40.808 106.683 43.2244C104.25 46.0332 102.926 48.8651 102.741 51.6355C102.518 54.9599 104.181 58.115 106.799 59.3309C106.852 59.3556 106.899 59.392 106.936 59.4372C106.974 59.4825 107 59.5356 107.015 59.5925C107.027 59.6505 107.026 59.7105 107.011 59.7679C106.996 59.8253 106.968 59.8785 106.93 59.9234C106.295 60.6733 105.896 61.5942 105.784 62.5701C105.671 63.5461 105.85 64.5334 106.298 65.4079C106.746 66.2824 107.442 67.005 108.3 67.4847C109.158 67.9644 110.139 68.1797 111.119 68.1037C111.206 68.0947 111.294 68.1168 111.368 68.166C111.441 68.2152 111.494 68.2884 111.519 68.373C111.545 68.4556 111.543 68.5446 111.512 68.6256C111.481 68.7066 111.424 68.7749 111.35 68.8193C111.302 68.8457 111.262 68.8834 111.232 68.929C111.203 68.9746 111.185 69.0268 111.18 69.081C111.193 69.5721 111.398 70.0388 111.75 70.3815C115.153 74.0907 119.45 76.2608 123.215 76.1839L124.085 76.1916Z" fill="#231F20"/>
<path d="M166.135 181.203C167.899 181.203 181.042 182.627 187.195 185.682C193.347 188.737 194.679 188.976 193.432 193.1C192.184 197.225 181.35 198.241 173.104 196.687C167.792 195.595 162.669 193.734 157.896 191.161L166.135 181.203Z" fill="white"/>
<path d="M180.881 197.787C178.25 197.777 175.625 197.519 173.042 197.017C167.694 195.918 162.535 194.046 157.727 191.461C157.682 191.434 157.643 191.399 157.613 191.356C157.583 191.314 157.561 191.266 157.55 191.215C157.541 191.165 157.543 191.113 157.556 191.064C157.57 191.015 157.594 190.969 157.627 190.93L165.866 180.973C165.896 180.932 165.936 180.899 165.981 180.876C166.027 180.853 166.077 180.841 166.128 180.842H166.205C168.353 180.842 181.189 182.304 187.349 185.359L188.735 186.044C193.67 188.46 195.003 189.122 193.771 193.201C192.993 195.786 187.926 197.787 180.881 197.787ZM158.443 191.054C163.08 193.5 168.039 195.28 173.173 196.34C181.451 197.879 191.953 196.787 193.101 193C194.156 189.491 193.393 189.114 188.427 186.683L187.041 185.998C181.166 183.081 168.599 181.596 166.297 181.55L158.443 191.054Z" fill="#231F20"/>
<path d="M167.898 181.165C169.061 181.449 170.073 182.163 170.731 183.162C171.39 184.161 171.646 185.372 171.448 186.552C170.871 190.93 161.608 191.115 161.076 191.169C160.545 191.223 167.898 181.165 167.898 181.165Z" fill="white"/>
<path d="M161.076 191.415C161.007 191.413 160.94 191.394 160.881 191.359C160.822 191.324 160.772 191.274 160.737 191.215C160.622 190.984 160.437 190.63 167.613 180.926C167.655 180.87 167.712 180.827 167.778 180.804C167.844 180.78 167.915 180.777 167.983 180.795C168.022 180.795 172.411 181.896 171.833 186.536C171.248 190.992 162.809 191.384 161.122 191.415H161.076ZM168.006 181.542C165.75 184.62 162.393 189.237 161.554 190.699C163.663 190.599 170.601 190.007 171.071 186.444C171.252 185.401 171.042 184.329 170.483 183.43C169.923 182.532 169.053 181.871 168.037 181.573L168.006 181.542Z" fill="#231F20"/>
<path d="M99.2453 191.192C98.9758 191.33 96.4579 194.601 85.4777 195.909C74.4975 197.217 70.4242 199.58 67.9756 193.816C65.527 188.052 67.2056 184.328 72.5956 182.681C77.9856 181.034 92.9159 179.672 95.8419 182.427C98.7679 185.182 99.2453 191.192 99.2453 191.192Z" fill="white"/>
<path d="M73.3963 197.864C70.6782 197.864 68.9303 196.956 67.6521 193.955C66.3739 190.953 66.1814 188.375 67.1131 186.382C67.9755 184.535 69.7927 183.173 72.5031 182.35C77.5697 180.811 92.962 179.226 96.0882 182.173C99.0835 184.989 99.5609 190.915 99.584 191.161C99.5876 191.226 99.5738 191.291 99.544 191.35C99.5143 191.408 99.4696 191.457 99.4146 191.492L99.3069 191.584C96.1421 194.463 90.0668 195.717 85.5084 196.256C83.1445 196.54 81.1117 196.871 79.3484 197.164C77.3844 197.544 75.3949 197.778 73.3963 197.864ZM87.6105 181.196C82.336 181.196 75.945 182.034 72.7264 183.019C70.2008 183.789 68.5222 185.02 67.7522 186.682C66.9052 188.483 67.09 190.838 68.2989 193.678C70.1084 197.949 72.7803 197.525 79.2175 196.471C81.0193 196.179 83.0675 195.848 85.4391 195.563C89.8897 195.032 95.8265 193.816 98.8526 191.061C98.7448 190.053 98.0825 185.074 95.5954 182.704C94.4866 181.611 91.3219 181.196 87.6105 181.196Z" fill="#231F20"/>
<path d="M102.749 188.837C102.749 188.837 97.767 192.993 94.4483 192.5C91.1296 192.008 86.5404 190.192 88.3884 186.613C90.2364 183.035 102.133 180.88 102.133 180.88L102.749 188.837Z" fill="white"/>
<path d="M95.0181 192.893C94.8093 192.893 94.6008 192.877 94.3944 192.847C91.9073 192.477 88.9043 191.415 87.9418 189.53C87.7041 189.047 87.5916 188.512 87.6145 187.974C87.6373 187.436 87.7949 186.913 88.0727 186.452C89.9823 182.742 101.578 180.626 102.071 180.534C102.12 180.526 102.169 180.527 102.217 180.539C102.265 180.551 102.31 180.573 102.348 180.603C102.387 180.634 102.42 180.672 102.444 180.716C102.467 180.76 102.482 180.808 102.487 180.857L103.103 188.806C103.107 188.863 103.098 188.919 103.077 188.971C103.056 189.023 103.022 189.07 102.98 189.107C102.78 189.268 98.3984 192.893 95.0181 192.893ZM101.817 181.303C99.7766 181.704 90.2672 183.727 88.7272 186.775C88.5 187.137 88.3682 187.55 88.3439 187.977C88.3197 188.403 88.4038 188.829 88.5886 189.214C89.4356 190.853 92.2076 191.808 94.5253 192.154C97.3512 192.577 101.594 189.33 102.41 188.683L101.817 181.303Z" fill="#231F20"/>
<path d="M162.593 153.931C162.593 153.931 157.342 174.401 138.177 178.31C119.011 182.219 109.094 181.188 102.302 168.26C95.5108 155.331 99.9922 147.42 99.9922 147.42L160.476 146.22L162.593 153.931Z" fill="#231F20"/>
<path d="M122.368 180.703C113.128 180.703 106.714 177.486 101.956 168.437C95.149 155.47 99.4841 147.559 99.6458 147.228C99.6794 147.17 99.7276 147.122 99.7857 147.088C99.8438 147.054 99.9097 147.036 99.9769 147.036L160.46 145.835C160.548 145.831 160.634 145.857 160.704 145.909C160.774 145.961 160.824 146.035 160.845 146.12L162.94 153.815C162.955 153.881 162.955 153.95 162.94 154.015C162.886 154.223 157.411 174.793 138.223 178.679C132.163 179.934 126.919 180.703 122.368 180.703ZM100.246 147.798C99.6458 149.067 96.612 156.593 102.641 168.083C109.533 181.165 119.581 181.719 138.061 177.933C156.102 174.254 161.731 155.439 162.154 153.931L160.16 146.612L100.246 147.798Z" fill="#231F20"/>
<path d="M95.4801 154.115C95.4801 154.115 85.5702 122.102 86.8715 102.04C88.1728 81.9785 95.6341 81.2628 105.813 80.1316C110.333 79.6237 134.411 76.0607 143.428 86.665C152.445 97.2693 168.314 146.936 168.314 146.936L95.4801 154.115Z" fill="#0AB377"/>
<path d="M131.247 80.1855L129.707 90.8975C129.707 90.8975 126.334 96.4305 119.581 93.6294C112.828 90.8283 112.697 85.6646 112.697 85.6646L115.9 65.872C115.9 65.872 123.023 59.4848 126.018 47.2798C126.018 47.2798 131.986 57.6841 140.648 60.0235C140.648 60.0235 140.071 68.6654 138.523 74.0214C136.983 79.2005 131.354 80.1239 131.247 80.1855Z" fill="white"/>
<path d="M123.2 94.7991C121.89 94.7833 120.597 94.506 119.396 93.9834C112.466 91.1207 112.281 85.8955 112.274 85.6723L115.5 65.8104C115.516 65.7224 115.559 65.6416 115.623 65.5796C115.692 65.518 122.692 59.1308 125.633 47.1875C125.654 47.1142 125.696 47.0484 125.753 46.9979C125.811 46.9475 125.881 46.9145 125.957 46.9028C126.032 46.8921 126.109 46.904 126.177 46.9369C126.246 46.9697 126.303 47.0221 126.342 47.0875C126.403 47.1952 132.34 57.3839 140.725 59.6464C140.812 59.6695 140.888 59.7221 140.94 59.7951C140.992 59.8682 141.017 59.9571 141.01 60.0466C141.01 60.1312 140.409 68.7963 138.869 74.1292C137.599 78.5233 133.479 80.0316 131.601 80.4933L130.061 90.9514C130.054 91.0024 130.038 91.0518 130.014 91.0976C129.256 92.2124 128.241 93.1298 127.056 93.7737C125.871 94.4175 124.549 94.7691 123.2 94.7991ZM116.27 66.0567L113.082 85.7262C113.082 85.8493 113.313 90.6051 119.735 93.2754C125.733 95.761 128.975 91.3362 129.345 90.759L130.885 80.1316C130.892 80.0733 130.913 80.0176 130.947 79.9693C130.98 79.921 131.025 79.8817 131.077 79.8546C131.148 79.8134 131.227 79.7872 131.308 79.7776C132.964 79.3852 136.952 78.0231 138.138 73.9137C139.493 69.2272 140.109 61.9012 140.225 60.3082C132.987 58.1843 127.735 50.7274 126.164 48.2572C123.238 59.0923 117.102 65.2102 116.27 66.0567Z" fill="#231F20"/>
<path d="M120.051 66.1721C119.964 65.171 119.553 64.2253 118.88 63.4787C118.226 62.808 117.46 62.256 116.617 61.8473C116.179 61.577 115.688 61.4062 115.177 61.3471C114.815 61.3506 114.458 61.4211 114.122 61.5549C113.302 61.8162 112.603 62.3622 112.151 63.094C111.853 63.7148 111.713 64.3993 111.742 65.0871C111.712 65.8314 111.779 66.5765 111.943 67.3034C112.124 68.0291 112.448 68.7115 112.896 69.3104C113.344 69.9094 113.907 70.4128 114.553 70.7913C115.198 71.1697 115.913 71.4156 116.655 71.5144C117.396 71.6131 118.151 71.5629 118.873 71.3666" fill="white"/>
<path d="M117.41 71.9129C116.07 71.9141 114.768 71.4681 113.71 70.6456C112.653 69.823 111.901 68.6711 111.573 67.3726C111.394 66.6168 111.322 65.8398 111.357 65.064C111.33 64.3145 111.486 63.5696 111.812 62.8939C112.302 62.0894 113.064 61.4863 113.96 61.1932C114.343 61.0444 114.75 60.9662 115.161 60.9623C115.732 61.0224 116.281 61.2091 116.77 61.5087C117.651 61.9382 118.451 62.5161 119.134 63.2171C119.865 64.0279 120.311 65.0545 120.405 66.1414C120.411 66.243 120.378 66.3432 120.312 66.4208C120.246 66.4983 120.152 66.5471 120.051 66.5569C119.949 66.5615 119.85 66.5275 119.773 66.4618C119.696 66.3961 119.646 66.3036 119.635 66.2029C119.559 65.2873 119.189 64.4207 118.58 63.7327C117.954 63.0975 117.222 62.5766 116.416 62.1936C116.032 61.9476 115.598 61.7899 115.146 61.7319C114.834 61.7345 114.525 61.7972 114.237 61.9166C113.51 62.141 112.884 62.6118 112.466 63.2479C112.205 63.8163 112.083 64.439 112.112 65.064C112.075 65.775 112.14 66.4876 112.305 67.1802C112.474 67.8539 112.776 68.4872 113.192 69.0432C113.609 69.5993 114.131 70.0671 114.73 70.4194C115.329 70.7717 115.992 71.0015 116.681 71.0954C117.37 71.1893 118.07 71.1454 118.742 70.9664C118.84 70.9404 118.944 70.9541 119.032 71.0046C119.12 71.055 119.184 71.1381 119.211 71.2357C119.224 71.2847 119.227 71.3358 119.22 71.3859C119.213 71.4361 119.196 71.4843 119.17 71.5279C119.145 71.5716 119.11 71.6097 119.07 71.6401C119.029 71.6705 118.983 71.6926 118.934 71.7051C118.438 71.8422 117.925 71.9121 117.41 71.9129Z" fill="#231F20"/>
<path d="M129.73 63.1171C129.73 63.1171 132.756 69.081 131.762 69.9352C130.769 70.7894 128.382 69.8506 128.382 69.8506" fill="white"/>
<path d="M130.523 70.6817C129.732 70.6573 128.951 70.4985 128.213 70.2122C128.166 70.1936 128.123 70.1658 128.086 70.1306C128.05 70.0953 128.021 70.0533 128.001 70.0068C127.981 69.9604 127.97 69.9104 127.97 69.8598C127.969 69.8092 127.978 69.759 127.997 69.712C128.036 69.6184 128.111 69.5436 128.204 69.5034C128.297 69.4632 128.403 69.4608 128.498 69.4966C129.06 69.712 130.808 70.2122 131.478 69.6428C131.886 69.3042 130.869 66.2722 129.36 63.2864C129.336 63.2416 129.322 63.1925 129.318 63.142C129.313 63.0915 129.319 63.0407 129.335 62.9926C129.351 62.9445 129.376 62.9001 129.41 62.8619C129.443 62.8238 129.484 62.7928 129.529 62.7708C129.621 62.7272 129.725 62.7204 129.821 62.7519C129.917 62.7835 129.998 62.8509 130.045 62.9401C130.992 64.8178 133.087 69.2811 131.986 70.2276C131.564 70.5409 131.048 70.701 130.523 70.6817Z" fill="#231F20"/>
<path d="M125.97 61.769C126.028 61.0574 125.663 60.4469 125.155 60.4054C124.646 60.364 124.187 60.9073 124.129 61.619C124.07 62.3306 124.436 62.9411 124.944 62.9826C125.453 63.024 125.912 62.4807 125.97 61.769Z" fill="#231F20"/>
<path d="M135.51 63.0863C135.563 62.3743 135.194 61.7664 134.685 61.7285C134.176 61.6906 133.72 62.2371 133.667 62.9491C133.614 63.6612 133.984 64.2691 134.492 64.307C135.001 64.3449 135.457 63.7984 135.51 63.0863Z" fill="#231F20"/>
<path d="M128.944 75.4528C127.767 75.4735 126.602 75.2095 125.548 74.6833C123.708 73.7213 122.53 71.8821 122.045 69.2195C122.036 69.1695 122.037 69.1182 122.048 69.0686C122.059 69.019 122.08 68.9721 122.11 68.9306C122.139 68.8891 122.176 68.8538 122.219 68.8268C122.262 68.7998 122.31 68.7816 122.361 68.7732C122.46 68.7572 122.562 68.7803 122.646 68.8376C122.729 68.895 122.787 68.9821 122.807 69.081C123.238 71.4974 124.286 73.1519 125.887 73.9984C129.121 75.6914 133.672 73.6444 133.718 73.6213C133.811 73.5797 133.917 73.5765 134.012 73.6126C134.107 73.6486 134.184 73.721 134.226 73.8137C134.248 73.8595 134.26 73.9092 134.262 73.9599C134.264 74.0106 134.256 74.0611 134.238 74.1085C134.22 74.1559 134.193 74.1993 134.158 74.2359C134.123 74.2725 134.08 74.3016 134.034 74.3216C132.426 75.0218 130.698 75.4058 128.944 75.4528Z" fill="#231F20"/>
<path d="M131.246 80.1855C131.246 80.1855 124.316 80.7549 120.744 77.9384C120.744 77.9384 123.785 87.5577 130.176 87.5269L131.246 80.1855Z" fill="#231F20"/>
<path d="M130.13 87.9117C123.554 87.9117 120.49 78.454 120.359 78.0539C120.336 77.975 120.339 77.8909 120.366 77.8136C120.394 77.7363 120.445 77.6696 120.513 77.6229C120.578 77.5724 120.658 77.5449 120.74 77.5449C120.822 77.5449 120.902 77.5724 120.967 77.6229C124.409 80.3086 131.131 79.793 131.2 79.7853C131.258 79.7813 131.315 79.7901 131.369 79.8112C131.422 79.8323 131.47 79.8651 131.509 79.9071C131.548 79.9492 131.578 79.9995 131.595 80.0543C131.612 80.1091 131.617 80.1671 131.608 80.224L130.538 87.5731C130.522 87.6689 130.471 87.7556 130.397 87.8177C130.322 87.8798 130.227 87.9131 130.13 87.9117ZM121.506 78.9081C122.484 81.3167 125.256 86.8959 129.83 87.1345L130.777 80.601C129.298 80.6626 124.74 80.7088 121.521 78.9081H121.506Z" fill="#231F20"/>
<path d="M98.1828 81.917C83.9609 80.147 70.6091 140.487 78.3707 146.22C90.4751 155.17 127.42 142.949 127.42 142.949L123.724 127.028C123.724 127.028 97.0586 128.297 96.5735 122.826C96.0884 117.354 111.473 91.7055 109.317 87.9656C107.161 84.2256 98.1828 81.917 98.1828 81.917Z" fill="#0AB377"/>
<path d="M147.84 127.474C147.755 127.476 147.672 127.447 147.608 127.391C147.544 127.336 147.503 127.258 147.493 127.174C145.661 114.307 141.641 92.7598 140.34 91.4978C140.277 91.4316 140.242 91.3435 140.242 91.2519C140.242 91.1603 140.278 91.0724 140.342 91.0067C140.406 90.9409 140.492 90.9024 140.584 90.8993C140.676 90.8962 140.765 90.9286 140.833 90.9899C142.504 92.6136 146.8 117.331 148.186 127.074C148.2 127.167 148.175 127.261 148.119 127.336C148.063 127.411 147.979 127.461 147.886 127.474H147.84Z" fill="#231F20"/>
<path d="M134.234 157.917L109.687 151.045L154.77 142.572L179.171 152.792L134.234 157.917Z" fill="white"/>
<path d="M134.234 158.325C134.201 158.332 134.167 158.332 134.134 158.325L109.586 151.399C109.484 151.399 109.386 151.358 109.314 151.286C109.242 151.214 109.201 151.116 109.201 151.014C109.201 150.912 109.242 150.814 109.314 150.742C109.386 150.67 109.484 150.629 109.586 150.629L154.67 142.164C154.74 142.141 154.815 142.141 154.886 142.164L179.287 152.384C179.365 152.417 179.43 152.475 179.472 152.549C179.513 152.622 179.53 152.708 179.518 152.792C179.506 152.877 179.467 152.956 179.405 153.015C179.344 153.075 179.264 153.113 179.179 153.123L134.28 158.325H134.234ZM111.381 151.145L134.265 157.555L177.662 152.607L154.724 143.003L111.381 151.145Z" fill="#231F20"/>
<path d="M119.751 132.53C125.141 133.122 130.138 133.507 135.151 135.608C138.015 136.81 140.72 138.361 143.205 140.225C144.471 141.123 145.654 142.133 146.739 143.242C147.601 144.181 147.324 145.096 145.877 144.642C144.193 144.115 142.599 143.337 141.149 142.334C144.617 145.162 147.691 148.441 150.289 152.084C150.581 152.499 150.866 153.092 150.52 153.461C150.173 153.831 149.403 153.461 148.98 153.077L141.364 145.858C143.38 147.596 145.095 149.656 146.439 151.953C146.631 152.284 146.816 152.723 146.616 153.023C146.277 153.584 145.415 153.161 144.953 152.692C142.672 150.39 140.597 147.892 138.754 145.227L142.866 151.384C142.827 151.497 142.766 151.602 142.686 151.692C142.607 151.781 142.51 151.855 142.402 151.907C142.294 151.959 142.176 151.989 142.056 151.996C141.936 152.003 141.816 151.985 141.703 151.945C141.25 151.758 140.858 151.449 140.571 151.053L135.589 145.335L138.531 149.383C138.993 150.014 139.455 150.922 138.924 151.514C138.392 152.107 137.191 151.514 136.513 150.914C133.788 148.429 130.795 146.253 127.589 144.427C126.426 143.742 125.433 142.811 124.147 142.418C122.299 141.849 119.989 141.926 118.064 141.71" fill="white"/>
<path d="M150.15 153.985C149.635 153.927 149.157 153.693 148.795 153.323L146.331 151.014C146.492 151.268 146.654 151.53 146.8 151.784C146.956 151.984 147.055 152.223 147.086 152.475C147.117 152.727 147.08 152.983 146.978 153.215C146.909 153.334 146.813 153.434 146.698 153.509C146.583 153.584 146.452 153.631 146.315 153.646C146.024 153.642 145.737 153.578 145.472 153.458C145.207 153.337 144.97 153.163 144.775 152.946C144.267 152.438 143.774 151.922 143.289 151.407C143.293 151.435 143.293 151.463 143.289 151.491C143.26 151.634 143.201 151.768 143.116 151.886C143.031 152.004 142.922 152.103 142.796 152.176C142.63 152.276 142.445 152.34 142.253 152.365C142.061 152.39 141.866 152.376 141.68 152.322C141.162 152.119 140.713 151.772 140.386 151.322L139.478 150.283C139.591 150.534 139.631 150.811 139.593 151.084C139.555 151.356 139.44 151.612 139.262 151.822C139.151 151.946 139.016 152.046 138.865 152.116C138.714 152.187 138.551 152.225 138.384 152.23C137.58 152.142 136.836 151.765 136.29 151.168C133.591 148.696 130.621 146.538 127.435 144.735C127.042 144.504 126.665 144.242 126.295 143.965C125.623 143.441 124.872 143.025 124.07 142.734C122.727 142.394 121.351 142.208 119.966 142.18C119.304 142.141 118.657 142.103 118.049 142.041C117.956 142.03 117.871 141.982 117.814 141.908C117.756 141.835 117.73 141.742 117.741 141.649C117.745 141.603 117.759 141.559 117.781 141.519C117.803 141.479 117.833 141.443 117.869 141.415C117.905 141.386 117.946 141.365 117.99 141.352C118.034 141.339 118.08 141.336 118.126 141.341C118.726 141.403 119.358 141.441 120.004 141.48C121.446 141.507 122.88 141.701 124.278 142.057C125.146 142.374 125.961 142.82 126.696 143.38C127.05 143.634 127.412 143.88 127.789 144.104C131.018 145.938 134.032 148.126 136.775 150.629C137.192 151.053 137.73 151.335 138.315 151.437C138.387 151.435 138.457 151.418 138.522 151.387C138.587 151.357 138.645 151.314 138.692 151.26C139.108 150.806 138.538 149.921 138.277 149.56L135.335 145.52C135.308 145.484 135.287 145.444 135.276 145.401C135.264 145.358 135.261 145.313 135.266 145.268C135.272 145.224 135.287 145.181 135.309 145.142C135.331 145.104 135.361 145.07 135.397 145.043C135.462 144.979 135.549 144.944 135.639 144.944C135.73 144.944 135.817 144.979 135.882 145.043L140.871 150.76C141.115 151.101 141.448 151.367 141.834 151.53C141.925 151.555 142.02 151.562 142.114 151.55C142.208 151.539 142.299 151.508 142.381 151.46C142.43 151.435 142.472 151.398 142.504 151.353L138.492 145.327C138.44 145.251 138.421 145.157 138.438 145.066C138.455 144.975 138.508 144.894 138.585 144.842C138.661 144.79 138.755 144.771 138.846 144.788C138.937 144.806 139.018 144.858 139.07 144.935C140.905 147.581 142.966 150.063 145.23 152.353C145.48 152.628 145.822 152.803 146.192 152.846C146.223 152.845 146.252 152.836 146.278 152.82C146.304 152.803 146.325 152.78 146.338 152.753C146.423 152.622 146.338 152.376 146.161 152.038C145.234 150.452 144.126 148.98 142.858 147.651L141.141 146.02C141.085 145.954 141.056 145.87 141.058 145.784C141.06 145.697 141.093 145.615 141.152 145.552C141.211 145.488 141.29 145.448 141.376 145.44C141.462 145.431 141.548 145.454 141.618 145.504C142.227 146.028 142.804 146.574 143.359 147.151L149.241 152.73C149.47 152.99 149.784 153.159 150.127 153.207C150.158 153.209 150.189 153.202 150.217 153.189C150.245 153.175 150.27 153.155 150.289 153.13C150.466 152.946 150.289 152.53 150.034 152.192C147.456 148.575 144.405 145.319 140.964 142.511C140.901 142.451 140.862 142.37 140.855 142.283C140.848 142.197 140.873 142.111 140.925 142.041C140.977 141.972 141.053 141.924 141.139 141.907C141.224 141.89 141.312 141.905 141.387 141.949C142.803 142.934 144.361 143.697 146.007 144.211C146.546 144.381 146.831 144.311 146.885 144.211C146.939 144.111 146.885 143.773 146.508 143.373C145.439 142.277 144.272 141.283 143.02 140.402C140.56 138.558 137.88 137.025 135.043 135.839C130.523 133.953 126.003 133.469 121.183 132.953L119.681 132.784C119.635 132.779 119.591 132.765 119.551 132.743C119.511 132.721 119.475 132.691 119.447 132.656C119.418 132.62 119.397 132.579 119.384 132.535C119.371 132.491 119.368 132.444 119.373 132.399C119.378 132.353 119.392 132.309 119.414 132.269C119.436 132.229 119.465 132.193 119.501 132.165C119.537 132.136 119.578 132.115 119.622 132.102C119.666 132.09 119.713 132.086 119.758 132.091L121.298 132.253C126.141 132.776 130.707 133.269 135.32 135.192C138.211 136.389 140.942 137.94 143.451 139.81C144.738 140.725 145.939 141.755 147.039 142.888C147.594 143.488 147.763 144.142 147.486 144.581C147.324 144.827 146.893 145.196 145.807 144.858C145.181 144.666 144.566 144.438 143.967 144.173C146.429 146.475 148.655 149.017 150.612 151.761C151.143 152.53 151.213 153.153 150.82 153.584C150.736 153.677 150.634 153.751 150.52 153.803C150.406 153.855 150.283 153.882 150.158 153.885L150.15 153.985Z" fill="#231F20"/>
<path d="M179.171 152.792L190.406 122.741L144.521 123.649L134.234 157.917L179.171 152.792Z" fill="white"/>
<path d="M134.234 158.325C134.178 158.325 134.123 158.313 134.072 158.289C134.021 158.265 133.977 158.23 133.942 158.186C133.901 158.138 133.873 158.08 133.86 158.019C133.846 157.957 133.848 157.893 133.865 157.832L144.152 123.565C144.177 123.487 144.225 123.419 144.289 123.37C144.354 123.32 144.432 123.291 144.514 123.288L190.398 122.379C190.461 122.379 190.523 122.393 190.579 122.421C190.636 122.449 190.684 122.49 190.721 122.541C190.755 122.593 190.776 122.652 190.784 122.713C190.792 122.774 190.787 122.836 190.768 122.895L179.533 152.907C179.508 152.975 179.465 153.035 179.408 153.08C179.35 153.125 179.282 153.153 179.21 153.161L134.28 158.325H134.234ZM144.814 124.049L134.804 157.494L178.925 152.461L189.874 123.157L144.814 124.049Z" fill="#231F20"/>
<path d="M176.723 153.069C176.723 153.069 189.174 163.173 184.8 172.438C180.426 181.704 100.87 192.292 100.87 192.292L97.2896 180.18C97.2896 180.18 159.698 148.321 176.723 153.069Z" fill="#231F20"/>
<path d="M100.87 192.677C100.787 192.676 100.706 192.649 100.64 192.599C100.574 192.549 100.525 192.479 100.5 192.4L96.9198 180.288C96.8925 180.202 96.8969 180.11 96.9323 180.028C96.9677 179.946 97.0317 179.88 97.1123 179.841C97.2663 179.757 112.92 171.792 130.461 164.497C154.062 154.685 169.654 150.714 176.8 152.699C176.853 152.714 176.903 152.74 176.946 152.776C179.119 154.621 181.049 156.734 182.69 159.064C186.124 164.004 186.956 168.683 185.093 172.608C180.642 181.95 104.173 192.239 100.924 192.67L100.87 192.677ZM97.7437 180.365L101.147 191.846C106.707 191.077 180.265 180.934 184.4 172.261C188.465 163.704 177.47 154.185 176.515 153.407C160.329 149.09 102.41 178.056 97.7899 180.38L97.7437 180.365Z" fill="#231F20"/>
<path d="M93.1699 148.429C93.1699 148.429 154.947 173.392 170.262 179.98L161.361 193.724C161.361 193.724 104.32 192.608 87.9647 178.287C71.6099 163.966 72.6956 140.125 93.1699 148.429Z" fill="#231F20"/>
<path d="M161.361 194.124C161.223 194.124 146.893 193.824 130.754 191.777C109.04 189.014 94.5638 184.582 87.7185 178.587C79.1561 171.092 73.1578 157.932 77.8702 150.291C79.4102 147.751 83.522 144.096 93.3318 148.067C93.9478 148.321 155.286 173.115 170.432 179.618C170.484 179.639 170.53 179.671 170.567 179.713C170.604 179.754 170.632 179.803 170.648 179.857C170.663 179.911 170.667 179.967 170.659 180.023C170.651 180.079 170.631 180.132 170.601 180.18L161.7 193.947C161.664 194.003 161.614 194.049 161.554 194.08C161.495 194.111 161.428 194.126 161.361 194.124ZM85.5856 147.09C82.4209 147.09 79.9954 148.305 78.517 150.691C74.8826 156.593 77.9087 168.983 88.219 178.01C103.781 191.638 157.311 193.254 161.153 193.347L169.7 180.149C153.885 173.377 93.6475 149.029 93.0315 148.783C90.6798 147.75 88.1527 147.176 85.5856 147.09Z" fill="#231F20"/>
<path d="M179.41 140.795C179.476 141.15 179.63 141.483 179.857 141.764L181.058 143.557C181.014 143.372 180.93 143.199 180.812 143.049C180.693 142.9 180.544 142.779 180.373 142.694C180.203 142.608 180.016 142.562 179.826 142.557C179.635 142.552 179.446 142.589 179.271 142.665C178.93 142.849 178.647 143.124 178.453 143.46C178.258 143.795 178.161 144.178 178.17 144.565C178.205 145.34 178.388 146.1 178.709 146.805C179.564 149.021 181.497 152.261 184.292 150.583C186.186 149.444 186.71 145.427 186.979 143.427C187.51 139.486 186.302 134.423 181.235 135.192C181.381 137.133 182.105 138.985 183.314 140.51C182.49 139.71 179.156 138.471 179.41 140.795Z" fill="white"/>
<path d="M182.744 151.399C182.434 151.401 182.127 151.349 181.835 151.245C180.011 150.622 178.871 148.275 178.355 146.928C178.019 146.181 177.828 145.376 177.793 144.558C177.78 144.103 177.897 143.653 178.131 143.262C178.364 142.871 178.703 142.555 179.11 142.349C179.298 142.263 179.503 142.219 179.71 142.218L179.541 141.964C179.278 141.634 179.103 141.242 179.033 140.825C178.971 140.52 179.014 140.203 179.153 139.924C179.293 139.645 179.521 139.421 179.803 139.286C180.592 139.043 181.445 139.106 182.19 139.463C181.45 138.171 181.008 136.731 180.896 135.246C180.891 135.158 180.919 135.07 180.974 135C181.03 134.931 181.109 134.884 181.196 134.869C181.967 134.701 182.767 134.722 183.527 134.931C184.288 135.14 184.986 135.531 185.562 136.07C187.372 137.855 187.672 141.072 187.341 143.496C187.041 145.712 186.502 149.691 184.484 150.906C183.962 151.231 183.359 151.402 182.744 151.399ZM179.756 142.934C179.632 142.932 179.509 142.956 179.395 143.003C179.114 143.16 178.883 143.391 178.725 143.67C178.568 143.95 178.49 144.268 178.501 144.588C178.532 145.318 178.704 146.034 179.01 146.697C179.395 147.682 180.457 150.045 182.09 150.599C182.426 150.706 182.783 150.735 183.133 150.683C183.483 150.631 183.816 150.5 184.107 150.298C185.839 149.26 186.363 145.35 186.617 143.473C186.933 141.164 186.679 138.163 185.077 136.547C184.623 136.119 184.076 135.802 183.479 135.619C182.882 135.436 182.251 135.393 181.635 135.493C181.833 137.244 182.519 138.905 183.614 140.287C183.67 140.356 183.698 140.444 183.691 140.533C183.683 140.622 183.642 140.705 183.576 140.764C183.51 140.826 183.423 140.86 183.333 140.86C183.243 140.86 183.156 140.826 183.091 140.764C182.575 140.256 180.873 139.533 180.111 139.902C179.941 139.979 179.726 140.156 179.78 140.756C179.847 141.053 179.978 141.331 180.165 141.572L180.811 142.526C180.981 142.636 181.124 142.782 181.23 142.954C181.337 143.125 181.404 143.318 181.427 143.519C181.436 143.597 181.417 143.676 181.375 143.743C181.334 143.81 181.271 143.861 181.196 143.888C181.123 143.915 181.042 143.915 180.968 143.89C180.894 143.865 180.831 143.815 180.788 143.75L180.311 143.042C180.139 142.958 179.947 142.921 179.756 142.934Z" fill="#231F20"/>
<path d="M162.062 177.132C162.013 177.14 161.964 177.14 161.916 177.132C160.568 176.609 128.721 164.289 121.544 159.895C121.455 159.839 121.391 159.751 121.367 159.648C121.342 159.546 121.359 159.438 121.414 159.348C121.44 159.303 121.476 159.264 121.518 159.233C121.56 159.202 121.608 159.18 121.659 159.168C121.71 159.156 121.763 159.154 121.815 159.162C121.867 159.171 121.916 159.19 121.96 159.217C129.075 163.573 161.869 176.263 162.2 176.386C162.299 176.424 162.379 176.499 162.423 176.596C162.466 176.693 162.469 176.803 162.431 176.902C162.4 176.972 162.347 177.032 162.282 177.073C162.216 177.114 162.139 177.135 162.062 177.132Z" fill="white"/>
<path d="M124.917 126.881C131.938 126.881 137.63 121.496 137.63 114.853C137.63 108.211 131.938 102.825 124.917 102.825C117.896 102.825 112.204 108.211 112.204 114.853C112.204 121.496 117.896 126.881 124.917 126.881Z" fill="#231F20"/>
<path d="M124.917 127.258C117.695 127.258 111.827 121.695 111.827 114.853C111.827 108.012 117.702 102.441 124.917 102.441C132.132 102.441 138.007 108.012 138.007 114.853C138.007 121.695 132.14 127.258 124.917 127.258ZM124.917 103.21C118.118 103.21 112.597 108.435 112.597 114.853C112.597 121.271 118.126 126.489 124.917 126.489C131.709 126.489 137.237 121.271 137.237 114.853C137.237 108.435 131.716 103.21 124.917 103.21Z" fill="#231F20"/>
<path d="M118.21 118.763L115.13 116.962V114.584L118.21 112.783C119.237 112.193 120.264 111.593 121.29 110.983V113.861C120.744 114.199 120.197 114.53 119.65 114.846C119.104 115.161 118.565 115.484 118.01 115.831L119.65 116.739L121.29 117.655V120.563L118.21 118.763Z" fill="white"/>
<path d="M122.16 121.325L125.787 107.535L127.681 108.389L124.039 122.156L122.16 121.325Z" fill="white"/>
<path d="M131.67 112.783L134.75 114.584V116.962L131.67 118.763L128.59 120.563V117.655L130.23 116.739L131.87 115.831C131.324 115.484 130.777 115.154 130.23 114.846C129.683 114.538 129.144 114.199 128.59 113.861V110.983L131.67 112.783Z" fill="white"/>
<path d="M98.5601 148.321C98.458 148.327 98.3576 148.292 98.2811 148.224C98.2046 148.157 98.1581 148.061 98.152 147.959C98.1459 147.857 98.1806 147.757 98.2484 147.68C98.3163 147.604 98.4118 147.557 98.5139 147.551L116.994 145.312L119.928 130.529L96.2501 128.528C96.1935 128.524 96.1385 128.508 96.0892 128.48C96.0399 128.452 95.9975 128.413 95.9652 128.367C95.9307 128.321 95.9071 128.268 95.8964 128.212C95.8857 128.156 95.8882 128.098 95.9036 128.043L105.636 91.8286C105.663 91.7266 105.729 91.6393 105.82 91.5859C105.911 91.5325 106.019 91.5174 106.122 91.5439C106.224 91.5705 106.311 91.6364 106.364 91.7274C106.418 91.8183 106.433 91.9267 106.406 92.0287L96.7891 127.805L120.405 129.759C120.459 129.765 120.512 129.782 120.559 129.808C120.607 129.835 120.649 129.87 120.682 129.913C120.714 129.957 120.737 130.007 120.749 130.06C120.761 130.113 120.762 130.168 120.752 130.221L117.672 145.697C117.655 145.776 117.614 145.848 117.555 145.903C117.495 145.958 117.421 145.993 117.34 146.004L98.5601 148.275V148.321Z" fill="#231F20"/>
<path d="M200.323 43.8169H161.931V47.7877H200.323V43.8169Z" fill="#E6E7E8"/>
<path d="M243.182 43.8169H204.789V47.7877H243.182V43.8169Z" fill="#E6E7E8"/>
<path d="M200.323 50.6197H177.785V54.5905H200.323V50.6197Z" fill="#0AB377"/>
<path d="M238.893 50.6197H204.789V54.5905H238.893V50.6197Z" fill="#E6E7E8"/>
<path d="M200.323 57.4301H171.918V61.401H200.323V57.4301Z" fill="#E6E7E8"/>
<path d="M220.805 57.4301H204.789V61.401H220.805V57.4301Z" fill="#E6E7E8"/>
<path d="M200.331 64.2329H183.76V68.2037H200.331V64.2329Z" fill="#E6E7E8"/>
<path d="M236.159 64.2329H204.789V68.2037H236.159V64.2329Z" fill="#0AB377"/>
<path d="M200.323 71.0433H195.049V75.0142H200.323V71.0433Z" fill="#0AB377"/>
<path d="M225.864 71.0433H204.789V75.0142H225.864V71.0433Z" fill="#E6E7E8"/>
<path d="M199.661 99.0239H164.38V103.572H199.661V99.0239Z" fill="#0AB377"/>
<path d="M226.996 99.0239H205.328V103.572H226.996V99.0239Z" fill="#E6E7E8"/>
<path d="M199.653 106.812H171.009V111.36H199.653V106.812Z" fill="#E6E7E8"/>
<path d="M236.875 106.812H205.328V111.36H236.875V106.812Z" fill="#E6E7E8"/>
<path d="M199.653 114.607H185.331V119.155H199.653V114.607Z" fill="#E6E7E8"/>
<path d="M242.843 114.607H205.328V119.155H242.843V114.607Z" fill="#E6E7E8"/>
<path d="M199.653 122.403H194.286V126.951H199.653V122.403Z" fill="#E6E7E8"/>
<path d="M245.199 122.403H205.328V126.951H245.199V122.403Z" fill="#0AB377"/>
<path d="M232.109 130.19H205.328V134.738H232.109V130.19Z" fill="#E6E7E8"/>
<path d="M218.903 89.1584L216.008 88.0041V86.465L218.903 85.3107L221.798 84.1564V85.9879C221.275 86.211 220.759 86.4188 220.258 86.6189C219.758 86.819 219.227 87.0268 218.718 87.2499L220.258 87.8348L221.798 88.4196V90.2819L218.903 89.1584Z" fill="#E6E7E8"/>
<path d="M222.653 90.7975L226.088 81.9708L227.889 82.5095L224.432 91.3746L222.653 90.7975Z" fill="#E6E7E8"/>
<path d="M231.631 85.3338C232.594 85.7185 233.564 86.1033 234.526 86.4881V88.0272L231.631 89.1815L228.736 90.3358V88.4504L230.276 87.8656L231.816 87.2807C231.292 87.0575 230.777 86.8498 230.276 86.6497C229.776 86.4496 229.244 86.2418 228.736 86.0186V84.1794L231.631 85.3338Z" fill="#E6E7E8"/>
<path d="M162.94 34.3516C162.939 34.1732 162.978 33.9969 163.055 33.836C163.123 33.6721 163.225 33.5249 163.356 33.405C163.484 33.2866 163.632 33.1927 163.794 33.128C163.968 33.0569 164.154 33.0203 164.341 33.0203C164.519 33.0219 164.694 33.0585 164.857 33.128C165.016 33.1945 165.162 33.2883 165.288 33.405C165.411 33.5295 165.511 33.6756 165.581 33.836C165.652 33.9986 165.689 34.1741 165.689 34.3516C165.689 34.5315 165.652 34.7096 165.581 34.8749C165.509 35.0272 165.409 35.1654 165.288 35.2827C165.031 35.5231 164.693 35.66 164.341 35.6675C164.154 35.6675 163.968 35.6309 163.794 35.5598C163.631 35.498 163.482 35.4038 163.356 35.2827C163.227 35.1698 163.125 35.0307 163.055 34.8749C162.978 34.7113 162.939 34.5324 162.94 34.3516ZM162.94 38.8611C162.943 38.6849 162.982 38.5112 163.053 38.35C163.125 38.1888 163.228 38.0434 163.356 37.9222C163.481 37.7988 163.63 37.7019 163.794 37.6375C163.968 37.569 164.154 37.535 164.341 37.5375C164.518 37.5365 164.693 37.5705 164.857 37.6375C165.018 37.7039 165.164 37.8006 165.288 37.9222C165.411 38.0438 165.511 38.1874 165.581 38.3455C165.652 38.5095 165.688 38.6863 165.688 38.8649C165.688 39.0436 165.652 39.2204 165.581 39.3844C165.511 39.5402 165.411 39.6812 165.288 39.7999C165.162 39.9167 165.016 40.0104 164.857 40.077C164.693 40.144 164.518 40.178 164.341 40.177C164.154 40.1795 163.968 40.1455 163.794 40.077C163.632 40.0123 163.484 39.9184 163.356 39.7999C163.226 39.6857 163.123 39.5436 163.055 39.3844C162.977 39.221 162.938 39.042 162.94 38.8611Z" fill="#E6E7E8"/>
<path d="M207.9 163.835C208.204 163.851 208.505 163.764 208.755 163.589C208.97 163.427 209.07 163.088 209.07 162.565V160.179C209.07 159.784 209.121 159.391 209.224 159.01C209.32 158.654 209.482 158.32 209.702 158.025C209.926 157.741 210.21 157.509 210.533 157.348C210.919 157.168 211.34 157.081 211.765 157.094H213.498V159.572H212.89C212.751 159.558 212.611 159.582 212.485 159.642C212.358 159.701 212.251 159.794 212.173 159.91C212.04 160.144 211.974 160.41 211.981 160.68V163.111C211.99 163.419 211.935 163.726 211.819 164.012C211.727 164.233 211.596 164.436 211.434 164.612C211.293 164.764 211.123 164.887 210.934 164.974C210.783 165.053 210.618 165.103 210.449 165.12C210.616 165.151 210.779 165.203 210.934 165.274C211.122 165.355 211.292 165.473 211.434 165.62C211.805 166.03 212.001 166.568 211.981 167.121V169.56C211.971 169.83 212.038 170.096 212.173 170.33C212.25 170.447 212.357 170.541 212.483 170.602C212.609 170.663 212.75 170.689 212.89 170.676H213.498V173.154H211.765C211.34 173.166 210.919 173.079 210.533 172.9C210.21 172.738 209.926 172.507 209.702 172.223C209.484 171.926 209.322 171.593 209.224 171.238C209.122 170.854 209.07 170.458 209.07 170.06V167.675C209.097 167.493 209.083 167.307 209.028 167.131C208.973 166.955 208.88 166.794 208.755 166.659C208.505 166.484 208.204 166.397 207.9 166.413V163.835Z" fill="#E6E7E8"/>
<path d="M234.496 166.397C234.189 166.382 233.886 166.468 233.633 166.644C233.509 166.779 233.417 166.941 233.362 167.116C233.308 167.292 233.293 167.477 233.318 167.659V170.045C233.318 170.442 233.266 170.838 233.164 171.222C233.069 171.578 232.907 171.913 232.686 172.207C232.466 172.495 232.181 172.727 231.855 172.885C231.469 173.064 231.047 173.151 230.623 173.139H228.89V170.638H229.506C229.644 170.649 229.783 170.623 229.908 170.562C230.033 170.501 230.139 170.407 230.215 170.291C230.35 170.058 230.417 169.791 230.407 169.522V167.082C230.399 166.777 230.454 166.473 230.569 166.19C230.663 165.965 230.796 165.76 230.961 165.582C231.101 165.435 231.269 165.317 231.454 165.235C231.612 165.165 231.777 165.113 231.947 165.081C231.775 165.063 231.608 165.014 231.454 164.935C231.267 164.849 231.1 164.726 230.961 164.574C230.794 164.4 230.661 164.196 230.569 163.973C230.453 163.687 230.398 163.381 230.407 163.073V160.633C230.414 160.364 230.348 160.098 230.215 159.864C230.138 159.749 230.031 159.657 229.907 159.598C229.782 159.538 229.644 159.513 229.506 159.525H228.89V157.094H230.623C231.047 157.081 231.469 157.168 231.855 157.348C232.181 157.505 232.466 157.737 232.686 158.025C232.909 158.318 233.071 158.653 233.164 159.01C233.266 159.391 233.318 159.784 233.318 160.179V162.565C233.292 162.748 233.307 162.935 233.361 163.112C233.416 163.289 233.509 163.452 233.633 163.589C233.886 163.764 234.189 163.851 234.496 163.835V166.397Z" fill="#E6E7E8"/>
</svg>
